# xmcd
#
# Track frame offsets: 
#        150
#        14451
#        33295
#        48760
#        72128
#        87067
#        100704
#        120678
#        132896
#        147163
#        163356
#
# Disc length: 2287 seconds
#
# Revision: 3
# Processed by: cddbd v1.5.2PL0 Copyright (c) Steve Scherf et al.
# Submitted via: ExactAudioCopy v1.0b3
#
DISCID=8a08ed0b
DTITLE=Mike Bloomfield - It's Not Killing Me
DYEAR=1969
DGENRE=Blues
TTITLE0=If You See Me
TTITLE1=For Anyone You Meet
TTITLE2=Good Old Guy
TTITLE3=Far Too Many Nights
TTITLE4=It's Not Killing Me
TTITLE5=Next Time You See Me
TTITLE6=Michael's Lament
TTITLE7=Why Must My Baby
TTITLE8=The Ones I Loved Are Gone
TTITLE9=Don't Think About It, Baby
TTITLE10=Goofers
EXTD=
EXTT0=
EXTT1=
EXTT2=
EXTT3=
EXTT4=
EXTT5=
EXTT6=
EXTT7=
EXTT8=
EXTT9=
EXTT10=
PLAYORDER=
